<svg id="Layer_1" data-name="Layer 1" xmlns="http://www.w3.org/2000/svg" viewBox="0 0 1000 1000"><defs><style>.cls-1{fill:#1a6b94;}.cls-2{fill:#f01b2d;}</style></defs><title>Logo ESGC V.A.K</title><path class="cls-1" d="M315,387.1a6.2,6.2,0,0,0,6.2-6.2v-3.71A6.19,6.19,0,0,0,315,371H167.26a7.42,7.42,0,0,0-6.5,7.13V493.44h-3.55A6.26,6.26,0,0,0,151,499.7h0a6.26,6.26,0,0,0,6.26,6.26h3.55V622a7.84,7.84,0,0,0,7,7.06h146.9a6.2,6.2,0,0,0,6.2-6.2V619.1a6.21,6.21,0,0,0-6.2-6.2H175V506h4.27a6.26,6.26,0,0,0,6.26-6.26h0a6.26,6.26,0,0,0-6.26-6.26H175V387.1Z"/><path class="cls-1" d="M300,498.94a6.19,6.19,0,0,0-6.2-6.2h-88V418.18h87.48a6.53,6.53,0,0,0,6.54-6.53V411a6.54,6.54,0,0,0-6.54-6.54H200.8a6.54,6.54,0,0,0-3.34.92,6.21,6.21,0,0,0-4.06,5.82v88.05a6.2,6.2,0,0,0,6.2,6.2h.08a6.43,6.43,0,0,0,1.47.18h86.31v74H200.11a7.49,7.49,0,0,0-7.49,7.49v.49a7.49,7.49,0,0,0,7.49,7.5h92.22a7.49,7.49,0,0,0,7.49-7.5v-.07c0-.21,0-.42,0-.64V500.74a5.83,5.83,0,0,0,.15-1.33Z"/><path class="cls-2" d="M268.62,430H226.16a1.91,1.91,0,0,0-.54-.09h-1.3a2.17,2.17,0,0,0-2.09,2.08v1a2,2,0,0,0,.09.55v45.68a2,2,0,0,0,2,2h1.3a2.34,2.34,0,0,0,.54-.08h41a2.45,2.45,0,0,0,2.17-2.27V455.64a2,2,0,0,0-2-2H241.8a2,2,0,0,0-2,2v.95a2,2,0,0,0,2,2H264v17.55H227.62V434.93h41a2,2,0,0,0,2-2v-1A2,2,0,0,0,268.62,430Z"/><path class="cls-2" d="M268.48,562.93H227.59V522.1h40.74a2.18,2.18,0,0,0,2.18-2.18v-.4a2.18,2.18,0,0,0-2.18-2.18H225a2.05,2.05,0,0,0-.95.23,2.17,2.17,0,0,0-1.87,2.15v45.06a2.12,2.12,0,0,0,0,.44v.3a2.19,2.19,0,0,0,2.18,2.18h44.07a2.19,2.19,0,0,0,2.18-2.18v-.41A2.19,2.19,0,0,0,268.48,562.93Z"/><path class="cls-1" d="M368.85,436.31H353.28V448h18.2v5.26H346.69V415.32H371.3v5.32h-18V431.1h15.57Z"/><path class="cls-1" d="M405.77,440.9a13.7,13.7,0,0,1-4.47,9.46q-3.92,3.4-10.39,3.4a14.84,14.84,0,0,1-8-2.15,14.08,14.08,0,0,1-5.32-6.11,22,22,0,0,1-2-9.19v-3.54a22.11,22.11,0,0,1,1.9-9.45A14.21,14.21,0,0,1,383,417a15.19,15.19,0,0,1,8.22-2.22q6.27,0,10.1,3.4t4.45,9.62h-6.56c-.31-2.72-1.1-4.69-2.38-5.89a7.87,7.87,0,0,0-5.61-1.81,7.66,7.66,0,0,0-6.6,3.14c-1.54,2.09-2.32,5.16-2.36,9.21v3.36q0,6.15,2.2,9.38a7.31,7.31,0,0,0,6.45,3.24c2.58,0,4.53-.59,5.83-1.75s2.12-3.1,2.47-5.8Z"/><path class="cls-1" d="M441.92,435.27a23.35,23.35,0,0,1-1.93,9.78,14.66,14.66,0,0,1-5.51,6.46,16.18,16.18,0,0,1-16.46,0,14.91,14.91,0,0,1-5.57-6.42,22.59,22.59,0,0,1-2-9.61v-2.14a23.09,23.09,0,0,1,2-9.79,14.77,14.77,0,0,1,5.54-6.49,15.06,15.06,0,0,1,8.22-2.26A15.24,15.24,0,0,1,434.4,417a14.6,14.6,0,0,1,5.54,6.41,23,23,0,0,1,2,9.72Zm-6.59-2q0-6.3-2.39-9.66a8.4,8.4,0,0,0-13.43,0q-2.42,3.35-2.46,9.46v2.19q0,6.25,2.43,9.66a7.84,7.84,0,0,0,6.76,3.41A7.74,7.74,0,0,0,433,445q2.36-3.33,2.36-9.74Z"/><path class="cls-1" d="M455.07,448h17.21v5.26h-23.8V415.32h6.59Z"/><path class="cls-1" d="M499.49,436.31H483.92V448h18.2v5.26H477.33V415.32h24.61v5.32h-18V431.1h15.57Z"/><path class="cls-1" d="M540.58,443.47a4.58,4.58,0,0,0-1.76-3.85,21.49,21.49,0,0,0-6.34-2.74,30.37,30.37,0,0,1-7.29-3.07q-5.19-3.26-5.18-8.49a9.24,9.24,0,0,1,3.73-7.55,15.13,15.13,0,0,1,9.7-3,16.44,16.44,0,0,1,7.06,1.46,11.59,11.59,0,0,1,4.87,4.16,10.61,10.61,0,0,1,1.77,6h-6.56a6,6,0,0,0-1.86-4.65,7.71,7.71,0,0,0-5.33-1.68,8,8,0,0,0-5,1.38,4.61,4.61,0,0,0-1.79,3.86,4.15,4.15,0,0,0,1.93,3.47,22,22,0,0,0,6.35,2.71,29.23,29.23,0,0,1,7.11,3,11.37,11.37,0,0,1,3.94,3.85,10.08,10.08,0,0,1,1.25,5.09,9,9,0,0,1-3.64,7.54q-3.63,2.81-9.85,2.8a18.45,18.45,0,0,1-7.57-1.53,12.59,12.59,0,0,1-5.36-4.2,10.46,10.46,0,0,1-1.92-6.25h6.59a6.12,6.12,0,0,0,2.14,5,9.34,9.34,0,0,0,6.12,1.77,8.13,8.13,0,0,0,5.17-1.39A4.51,4.51,0,0,0,540.58,443.47Z"/><path class="cls-1" d="M580.68,415.32v25.34a12.3,12.3,0,0,1-3.87,9.57q-3.87,3.52-10.3,3.53t-10.33-3.48q-3.84-3.48-3.83-9.65V415.32h6.56v25.37a8,8,0,0,0,1.93,5.8,7.48,7.48,0,0,0,5.67,2q7.61,0,7.61-8V415.32Z"/><path class="cls-1" d="M594.3,439.18v14.06h-6.59V415.32h14.5q6.36,0,10.09,3.32a11.11,11.11,0,0,1,3.74,8.75q0,5.58-3.66,8.68t-10.25,3.11Zm0-5.32h7.91a7.83,7.83,0,0,0,5.37-1.65,6.08,6.08,0,0,0,1.85-4.78,6.57,6.57,0,0,0-1.88-4.91,7.22,7.22,0,0,0-5.15-1.88h-8.1Z"/><path class="cls-1" d="M644,436.31H628.38V448h18.2v5.26H621.79V415.32H646.4v5.32h-18V431.1H644ZM636.11,405h7.22l-7.22,7.89-5.07,0Z"/><path class="cls-1" d="M665.88,438.66h-7.35v14.58H652V415.32h13.33q6.56,0,10.13,2.95t3.57,8.52a10.69,10.69,0,0,1-1.84,6.37,11.66,11.66,0,0,1-5.12,3.95l8.52,15.79v.34h-7.06Zm-7.35-5.32h6.78a7.51,7.51,0,0,0,5.2-1.68,5.85,5.85,0,0,0,1.88-4.59,6.24,6.24,0,0,0-1.73-4.71,7.31,7.31,0,0,0-5.17-1.72h-7Z"/><path class="cls-1" d="M692.18,453.24h-6.57V415.32h6.57Z"/><path class="cls-1" d="M722.43,436.31H706.86V448h18.2v5.26H700.27V415.32h24.61v5.32h-18V431.1h15.57Z"/><path class="cls-1" d="M758.16,415.32v25.34a12.3,12.3,0,0,1-3.87,9.57q-3.85,3.52-10.3,3.53t-10.33-3.48q-3.82-3.48-3.83-9.65V415.32h6.56v25.37a8,8,0,0,0,1.93,5.8,7.48,7.48,0,0,0,5.67,2q7.6,0,7.61-8V415.32Z"/><path class="cls-1" d="M779.12,438.66h-7.34v14.58h-6.59V415.32h13.33q6.57,0,10.13,2.95t3.57,8.52a10.62,10.62,0,0,1-1.84,6.37,11.69,11.69,0,0,1-5.11,3.95l8.51,15.79v.34h-7Zm-7.34-5.32h6.77a7.54,7.54,0,0,0,5.21-1.68,5.85,5.85,0,0,0,1.87-4.59,6.24,6.24,0,0,0-1.73-4.71,7.29,7.29,0,0,0-5.17-1.72h-7Z"/><path class="cls-1" d="M820.63,436.31H805.06V448h18.2v5.26H798.47V415.32h24.61v5.32h-18V431.1h15.57Z"/><path class="cls-1" d="M346.69,517.23V479.32h11.2a17.51,17.51,0,0,1,8.92,2.24,15.25,15.25,0,0,1,6,6.35,20.1,20.1,0,0,1,2.14,9.43v1.9a20.14,20.14,0,0,1-2.15,9.48,15.11,15.11,0,0,1-6.12,6.3,18.44,18.44,0,0,1-9.1,2.21Zm6.59-32.6V512h4.3q5.18,0,7.95-3.24t2.83-9.31v-2.11q0-6.17-2.69-9.43c-1.78-2.16-4.38-3.25-7.78-3.25Z"/><path class="cls-1" d="M403.69,500.31H388.12V512h18.2v5.26H381.53V479.32h24.61v5.31h-18V495.1h15.57Z"/><path class="cls-1" d="M454,512.31a12.56,12.56,0,0,1-5.7,4.06,23.26,23.26,0,0,1-8.28,1.38,16.33,16.33,0,0,1-8.44-2.16,14.44,14.44,0,0,1-5.66-6.18,21.6,21.6,0,0,1-2.07-9.39v-3q0-8.6,4.11-13.42t11.49-4.83q6.33,0,10,3.14t4.48,9h-6.46q-1.1-6.85-7.94-6.85a7.77,7.77,0,0,0-6.73,3.19c-1.54,2.12-2.33,5.24-2.39,9.35v2.91q0,6.13,2.6,9.54a8.53,8.53,0,0,0,7.19,3.39q5.06,0,7.19-2.29v-7.42h-7.81v-5H454Z"/><path class="cls-1" d="M483.42,500.31H467.85V512h18.2v5.26H461.26V479.32h24.61v5.31h-18V495.1h15.57ZM475.58,469h7.22l-7.22,7.89h-5.07Z"/><path class="cls-1" d="M521.49,517.23H514.9L498,490.33v26.9h-6.58V479.32H498l17,27v-27h6.54Z"/><path class="cls-1" d="M536.23,517.23h-6.56V479.32h6.56Z"/><path class="cls-1" d="M566.49,500.31H550.91V512h18.21v5.26H544.33V479.32h24.6v5.31h-18V495.1h15.58Z"/><path class="cls-1" d="M616.69,504.89a13.68,13.68,0,0,1-4.48,9.46q-3.9,3.4-10.39,3.4a14.71,14.71,0,0,1-8-2.15,14.06,14.06,0,0,1-5.32-6.1,22,22,0,0,1-2-9.19v-3.55a22.33,22.33,0,0,1,1.9-9.45,14.4,14.4,0,0,1,5.46-6.3,15.26,15.26,0,0,1,8.21-2.21q6.29,0,10.11,3.4t4.45,9.62h-6.56c-.31-2.73-1.11-4.69-2.38-5.9a7.88,7.88,0,0,0-5.62-1.81,7.71,7.71,0,0,0-6.6,3.14c-1.53,2.09-2.32,5.17-2.35,9.21v3.37c0,4.1.73,7.22,2.2,9.38a7.29,7.29,0,0,0,6.44,3.23q3.88,0,5.83-1.75c1.31-1.16,2.13-3.09,2.48-5.8Z"/><path class="cls-1" d="M629.53,517.23H623V479.32h6.56Z"/><path class="cls-1" d="M651,509l9.64-29.66h7.24l-13.65,37.91h-6.38l-13.59-37.91h7.21Z"/><path class="cls-1" d="M679.08,517.23h-6.56V479.32h6.56Z"/><path class="cls-1" d="M693.77,512H711v5.26h-23.8V479.32h6.59Z"/><path class="cls-2" d="M360.48,570.37l7.55-27.6h10.21l-12.76,37.91h-10l-12.65-37.91H353Z"/><path class="cls-2" d="M404.51,564.59H390.14v9.06h17v7H381V542.77h26.17v7.05h-17v8h14.37Z"/><path class="cls-2" d="M424.93,567.27H420v13.41h-9.14V542.77h14.92q6.75,0,10.55,3a10.14,10.14,0,0,1,3.8,8.45,12.31,12.31,0,0,1-1.6,6.56,11.36,11.36,0,0,1-5,4.21l7.92,15.31v.39h-9.79Zm-4.95-7h5.78a5.2,5.2,0,0,0,3.92-1.37A5.29,5.29,0,0,0,431,555a5.41,5.41,0,0,0-1.33-3.85,5.16,5.16,0,0,0-3.91-1.39H420Z"/><path class="cls-2" d="M469.14,564.59H454.77v9.06h17v7H445.63V542.77H471.8v7.05h-17v8h14.37Z"/><path class="cls-2" d="M506.14,567.84a13.83,13.83,0,0,1-2.13,7,12.83,12.83,0,0,1-5.48,4.7,18.53,18.53,0,0,1-8.06,1.67q-7.47,0-11.77-4.87t-4.3-13.75v-1.87a23,23,0,0,1,1.94-9.75,14.74,14.74,0,0,1,5.59-6.46,15.56,15.56,0,0,1,8.43-2.28q6.9,0,11.1,3.63a14.38,14.38,0,0,1,4.76,10h-9.11q-.11-3.45-1.75-5a7.2,7.2,0,0,0-5-1.51,5.47,5.47,0,0,0-5,2.55c-1.05,1.7-1.61,4.42-1.66,8.15v2.69q0,6.06,1.52,8.67t5.25,2.6a7,7,0,0,0,4.82-1.48,6.31,6.31,0,0,0,1.77-4.72Z"/><path class="cls-2" d="M542.16,580.68h-9.09V564.85H519.61v15.83h-9.14V542.77h9.14v15.05h13.46V542.77h9.09Z"/><path class="cls-2" d="M569.94,573.6H557.41l-2.18,7.08h-9.77l13.91-37.91H568l14,37.91h-9.82Zm-10.34-7.06h8.15l-4.09-13.15Z"/><path class="cls-2" d="M615.22,576a14.62,14.62,0,0,1-6.17,3.78,26.75,26.75,0,0,1-8.9,1.43q-7.46,0-11.9-4.56T583.48,564l0-3.28a22.65,22.65,0,0,1,2-9.78,14.71,14.71,0,0,1,5.67-6.43,16,16,0,0,1,8.52-2.25c4.73,0,8.39,1.08,11,3.24s4.13,5.39,4.57,9.68h-8.81a7.17,7.17,0,0,0-2-4.53,6.49,6.49,0,0,0-4.42-1.36,6,6,0,0,0-5.32,2.92q-1.87,2.91-1.9,8.33v2.29q0,5.69,1.94,8.53c1.3,1.9,3.33,2.85,6.11,2.85q3.57,0,5.31-1.59V566.7h-6.35v-6.28h15.49Z"/><path class="cls-2" d="M650.27,542.77v24.81a14.25,14.25,0,0,1-1.8,7.31,11.64,11.64,0,0,1-5.15,4.7,18.26,18.26,0,0,1-7.94,1.61q-6.93,0-10.91-3.59t-4.07-9.84v-25h9.2V568q.15,6.22,5.78,6.22a5.58,5.58,0,0,0,4.29-1.56c1-1,1.46-2.74,1.46-5.08V542.77Z"/><path class="cls-2" d="M665.71,580.68H656.6V542.77h9.11Z"/><path class="cls-2" d="M703.73,580.68h-9.09L681.2,557.09v23.59h-9.14V542.77h9.14l13.41,23.59V542.77h9.12Z"/><path class="cls-2" d="M733,564.59H718.65v9.06h17v7H709.51V542.77h26.17v7.05h-17v8H733Z"/><path class="cls-2" d="M774.16,573.6H761.64l-2.19,7.08h-9.76l13.9-37.91h8.6l14,37.91h-9.81Zm-10.33-7.06H772l-4.09-13.15Z"/><path class="cls-2" d="M794,572.17a5,5,0,0,1,3.46,1.23,4.32,4.32,0,0,1,0,6.33,5.46,5.46,0,0,1-6.94,0,4.33,4.33,0,0,1,0-6.3A4.92,4.92,0,0,1,794,572.17Z"/><path class="cls-2" d="M818,566.57l-3.75,4.11v10h-9.14V542.77h9.14v16.71l3.18-4.81,8.18-11.9h11.3l-12.81,16.77,12.81,21.14H826Z"/><path class="cls-2" d="M844.21,572.17a5,5,0,0,1,3.46,1.23,4.32,4.32,0,0,1,0,6.33,5.46,5.46,0,0,1-6.94,0,4.33,4.33,0,0,1,0-6.3A4.92,4.92,0,0,1,844.21,572.17Z"/></svg>